<?xml version="1.0" standalone="no"?>
<!DOCTYPE svg PUBLIC "-//W3C//DTD SVG 20010904//EN"
 "http://www.w3.org/TR/2001/REC-SVG-20010904/DTD/svg10.dtd">
<svg version="1.0" xmlns="http://www.w3.org/2000/svg"
 width="1024.000000pt" height="768.000000pt" viewBox="0 0 1024.000000 768.000000"
 preserveAspectRatio="xMidYMid meet">

<g transform="translate(0.000000,768.000000) scale(0.100000,-0.100000)"
fill="#000000" stroke="none">
<path d="M0 3840 l0 -3840 5120 0 5120 0 0 3840 0 3840 -5120 0 -5120 0 0
-3840z m4325 3640 c3 -5 2 -10 -4 -10 -5 0 -13 5 -16 10 -3 6 -2 10 4 10 5 0
13 -4 16 -10z m55 -142 c0 -27 -4 -48 -8 -48 -4 0 -8 27 -7 59 0 32 3 54 7 48
4 -7 8 -33 8 -59z m92 -65 c21 -22 48 -21 48 3 0 18 8 18 26 -1 14 -13 13 -18
-6 -46 -12 -16 -20 -32 -17 -35 5 -5 114 3 454 32 100 9 200 13 222 9 23 -4
59 -4 82 0 37 6 41 9 37 34 -2 16 3 33 15 44 18 18 19 18 16 -10 -2 -15 -7
-33 -12 -40 -15 -20 0 -30 55 -36 29 -4 73 -10 97 -13 31 -5 42 -4 37 4 -8 13
36 1 79 -22 38 -20 24 -20 -110 -1 -55 8 -118 14 -140 13 -32 -1 -27 -3 25
-10 133 -18 326 -62 301 -68 -19 -4 1 -13 82 -39 59 -18 110 -37 113 -42 7
-12 9 -12 -76 15 -69 23 -173 48 -310 75 -30 6 -84 13 -120 16 -73 5 -42 -4
86 -24 179 -27 560 -166 787 -287 27 -14 50 -24 52 -22 7 7 -208 123 -224 120
-13 -2 -13 -1 -2 6 7 5 23 7 35 4 24 -6 268 -150 401 -237 50 -32 118 -73 152
-91 34 -18 59 -35 56 -38 -9 -8 83 -45 157 -63 36 -8 109 -15 164 -15 63 0 94
-3 85 -9 -9 -5 -10 -9 -2 -9 7 0 10 -10 7 -23 -3 -19 4 -27 41 -45 25 -12 51
-22 59 -22 7 0 21 -9 31 -20 10 -11 15 -20 10 -20 -4 0 -2 -7 5 -15 11 -13 10
-14 -4 -9 -9 3 -16 12 -16 19 0 8 -28 28 -63 45 -54 27 -67 29 -89 20 -21 -10
-33 -7 -79 15 -58 28 -132 49 -123 34 3 -5 12 -9 20 -9 19 0 49 -29 40 -38 -4
-3 -11 0 -15 7 -5 7 -17 11 -27 9 -14 -2 6 -27 84 -105 57 -56 106 -101 110
-100 4 1 8 -8 10 -21 2 -15 9 -22 17 -18 7 2 19 -2 26 -10 10 -13 10 -17 -2
-25 -12 -7 -11 -9 3 -9 9 0 19 -8 22 -17 3 -10 19 -32 36 -50 16 -17 31 -37
32 -45 2 -7 6 -15 9 -18 12 -9 135 -195 142 -212 10 -28 2 -21 -29 25 -144
213 -370 465 -543 606 -119 97 -353 247 -510 325 -150 76 -452 196 -491 196
-6 0 -19 8 -28 17 -16 16 -16 16 3 9 11 -4 29 -10 40 -12 11 -2 42 -10 68 -18
110 -33 12 15 -133 66 -180 63 -470 123 -478 100 -3 -9 -8 -8 -17 5 -12 17
-36 18 -322 18 -336 0 -433 -10 -747 -76 -77 -16 -141 -29 -142 -29 -2 0 -35
-64 -73 -142 -82 -166 -112 -221 -118 -215 -2 3 20 51 49 108 74 143 108 223
97 227 -22 9 -291 -73 -454 -138 -303 -119 -709 -376 -987 -622 -126 -112
-364 -362 -388 -408 -16 -30 -19 -167 -4 -193 9 -15 20 -4 79 75 39 51 80 104
91 118 54 64 227 260 229 260 2 0 6 -7 9 -16 3 -8 2 -12 -4 -9 -6 3 -10 1 -10
-6 0 -6 -27 -39 -59 -73 -83 -85 -227 -259 -267 -322 -19 -29 -38 -55 -44 -59
-19 -12 -10 -45 40 -142 50 -96 123 -205 168 -253 13 -14 37 -47 53 -75 15
-27 41 -63 56 -80 15 -16 27 -33 25 -37 -1 -5 2 -7 6 -6 9 3 105 -108 135
-154 12 -19 26 -28 43 -28 17 0 23 4 18 12 -5 8 -2 9 10 5 10 -4 63 3 119 15
84 18 133 22 282 21 173 0 185 -1 315 -35 128 -33 207 -64 275 -107 32 -21
135 -29 135 -11 0 6 -8 10 -17 11 -12 0 -14 2 -5 6 8 3 24 0 37 -7 31 -17 141
2 162 27 8 10 12 12 8 6 -9 -19 15 -16 55 6 19 10 51 22 70 26 67 14 155 56
182 87 21 24 26 27 21 10 l-5 -20 42 20 c23 12 44 28 48 37 3 9 20 39 38 66
17 28 57 97 89 154 50 90 56 107 46 124 -7 10 -8 17 -3 13 5 -3 14 6 21 21 6
14 15 23 18 19 22 -22 244 432 229 470 -3 8 -2 13 3 9 9 -5 18 14 66 150 30
84 25 51 -9 -57 -13 -42 -22 -79 -19 -81 2 -3 13 -3 23 0 14 4 23 23 34 77 34
149 63 315 60 340 -2 17 1 24 8 20 7 -5 9 2 6 19 -3 15 -1 24 3 21 5 -3 9 10
9 28 0 18 13 87 29 153 16 66 33 137 36 158 4 21 9 36 12 33 3 -2 -2 -40 -10
-83 -9 -43 -21 -109 -27 -148 -19 -111 -110 -573 -117 -591 -5 -14 -2 -16 15
-12 24 7 22 -3 -10 -38 -11 -12 -21 -39 -23 -60 -3 -22 -7 -58 -11 -81 -5 -31
-3 -43 5 -43 8 0 10 -8 6 -21 -5 -15 -4 -19 4 -15 6 4 11 3 11 -3 0 -5 -6 -12
-12 -14 -10 -4 -9 -8 2 -16 8 -6 11 -11 5 -12 -5 -1 6 -5 25 -9 l35 -7 -42 -2
c-41 -1 -63 -21 -25 -21 16 0 91 -23 144 -45 13 -5 19 2 28 34 6 23 15 39 20
36 14 -9 97 171 117 253 14 59 15 75 4 81 -10 6 -9 10 3 14 10 4 16 19 16 42
0 19 5 35 10 35 6 0 10 10 10 22 0 12 2 19 5 16 3 -2 1 -39 -5 -81 -15 -118
-63 -251 -144 -395 -20 -35 -36 -67 -36 -70 0 -14 148 -94 152 -82 2 4 17 2
33 -6 l30 -14 -30 5 c-22 4 -26 3 -15 -5 24 -16 38 -13 175 41 72 28 157 59
190 70 93 29 272 69 302 68 16 0 -22 -11 -83 -24 -133 -27 -208 -49 -289 -85
-33 -15 -81 -35 -108 -45 -57 -21 -57 -31 0 -11 22 8 96 27 164 43 119 27 134
28 379 28 239 0 263 -2 381 -27 139 -30 270 -72 401 -128 100 -43 292 -149
284 -157 -3 -3 -11 -1 -18 4 -24 20 -228 122 -321 161 -162 69 -280 101 -462
127 -102 15 -402 19 -335 5 l35 -7 -37 -2 c-22 0 -38 4 -38 10 0 8 -4 8 -13 1
-7 -6 -64 -18 -127 -26 -146 -20 -221 -40 -242 -66 -9 -11 -27 -20 -39 -20
-18 0 -20 -3 -11 -12 7 -7 68 -13 174 -15 90 -3 165 -7 168 -10 4 -4 -168 0
-427 10 -28 1 -49 6 -46 11 4 5 1 6 -6 2 -6 -4 -9 -11 -6 -16 3 -4 -11 -11
-30 -14 -19 -4 -35 -12 -35 -17 0 -6 8 -8 18 -6 49 14 71 16 76 9 2 -4 -30
-19 -72 -32 -135 -41 -251 -96 -337 -160 -56 -41 -73 -60 -56 -60 6 0 63 11
127 25 85 18 135 35 191 65 77 41 116 49 49 9 -20 -11 -33 -25 -30 -30 3 -5
-3 -6 -12 -2 -12 4 -15 3 -10 -6 4 -6 4 -10 -1 -9 -4 1 -18 -1 -30 -5 -12 -5
-95 -23 -185 -41 l-163 -34 -62 -66 c-173 -186 -265 -405 -266 -631 0 -174 45
-310 139 -414 49 -55 81 -71 96 -50 8 11 8 10 4 -4 -5 -15 -1 -17 32 -13 20 3
57 11 82 19 30 8 71 11 120 7 l75 -5 -73 -12 c-79 -12 -94 -19 -73 -32 17 -11
-35 -21 -109 -21 -52 0 -64 -4 -105 -36 -67 -51 -90 -79 -130 -159 -41 -83
-65 -193 -66 -307 -1 -79 -3 -81 -24 -21 -11 33 -25 18 -25 -28 0 -21 -4 -39
-9 -39 -13 0 -7 87 13 194 22 119 22 121 -9 99 -13 -10 -25 -24 -25 -31 0 -7
-4 -10 -10 -7 -5 3 -10 1 -10 -5 0 -7 -8 -24 -18 -38 -20 -30 -62 -136 -62
-158 0 -8 9 -14 21 -14 11 0 17 -5 14 -10 -4 -6 -11 -8 -16 -5 -5 4 -9 -1 -9
-10 0 -10 5 -13 13 -9 9 6 9 5 0 -7 -7 -8 -10 -26 -7 -40 2 -14 -2 -9 -10 11
l-13 35 -7 -40 c-14 -85 -15 -94 -6 -97 5 -2 2 -12 -6 -22 -14 -19 -14 -19
-15 5 0 13 1 101 3 194 6 351 5 357 -97 570 -29 61 -58 129 -64 151 -19 67
-14 282 9 379 31 135 121 341 220 508 12 20 17 37 11 37 -18 0 -348 -110 -480
-160 -163 -61 -355 -155 -456 -221 -44 -29 -125 -98 -181 -153 -86 -86 -107
-114 -144 -189 -35 -73 -41 -92 -32 -110 6 -12 13 -29 15 -37 3 -8 6 1 7 20 1
28 3 31 9 15 5 -11 7 -22 6 -25 -2 -3 -6 -46 -9 -95 -4 -50 -7 -97 -9 -105 -1
-8 2 -39 6 -69 l8 -55 17 25 c25 35 50 38 27 3 -14 -22 -16 -39 -11 -93 4 -39
14 -73 24 -85 9 -11 11 -16 5 -12 -30 17 -2 -66 31 -93 9 -7 13 -18 10 -23 -4
-5 -2 -20 4 -31 5 -12 26 -56 45 -98 61 -134 165 -276 193 -265 7 3 24 -8 37
-24 14 -16 28 -26 32 -22 5 4 5 1 1 -6 -5 -9 -13 -9 -29 -2 -12 6 16 -26 63
-71 l85 -82 -77 62 c-94 75 -171 159 -248 272 -74 108 -168 289 -202 389 -28
83 -52 215 -42 232 4 6 2 8 -3 5 -13 -8 -23 38 -23 104 0 68 -17 70 -27 2 -12
-88 -8 -185 16 -320 51 -294 178 -519 440 -780 176 -176 435 -351 708 -478 86
-39 108 -43 183 -33 l45 7 -42 -11 c-46 -12 -54 -22 -25 -33 234 -94 479 -158
907 -236 157 -28 431 -31 580 -5 408 69 745 241 1007 512 250 258 393 512 489
867 16 61 18 36 2 -30 -4 -17 -1 -23 12 -23 14 0 15 -3 5 -15 -8 -9 -10 -29
-7 -50 4 -24 2 -33 -5 -29 -6 4 -8 3 -5 -3 4 -6 -2 -38 -12 -71 -11 -33 -22
-73 -25 -88 -3 -16 -8 -42 -12 -59 -5 -28 -1 -25 57 35 34 36 57 56 51 44 -6
-11 -18 -26 -26 -33 -29 -24 -60 -82 -48 -90 7 -4 -2 -12 -22 -19 -24 -9 -40
-25 -54 -53 -11 -22 -22 -34 -24 -27 -3 8 -12 1 -24 -17 -10 -17 -24 -33 -31
-38 -7 -4 -12 -30 -11 -65 0 -32 -2 -68 -6 -80 -5 -13 -3 -22 3 -22 6 0 13 11
17 25 4 14 9 24 11 21 3 -3 -2 -27 -10 -53 -37 -110 -89 -279 -91 -290 -1 -7
-5 -16 -9 -19 -15 -15 -5 27 28 125 33 95 35 107 29 189 -8 121 -9 123 -47 77
-18 -22 -32 -43 -32 -47 0 -4 -4 -9 -10 -10 -12 -2 -49 -78 -46 -95 1 -7 -3
-22 -10 -34 -9 -17 -8 -23 2 -30 8 -5 20 -7 27 -4 6 2 12 -2 12 -10 0 -8 4
-15 9 -15 11 0 21 25 21 56 0 13 5 24 10 24 6 0 10 7 10 15 0 8 5 15 10 15 6
0 10 7 10 15 0 8 5 15 10 15 16 0 12 -25 -18 -92 -16 -34 -32 -76 -36 -91 -3
-15 -11 -25 -16 -22 -6 3 -10 -3 -10 -15 0 -11 -8 -24 -17 -27 -10 -4 -22 -13
-26 -20 -5 -7 -13 -11 -18 -7 -5 3 -8 0 -7 -8 2 -7 -3 -12 -10 -10 -9 2 -11
-4 -7 -18 4 -14 1 -22 -12 -27 -21 -8 -73 -43 -88 -59 -9 -11 -62 -37 -129
-64 -24 -9 -27 -13 -15 -21 10 -7 5 -8 -16 -3 -23 4 -26 3 -15 -5 11 -8 11
-11 2 -11 -7 0 -17 -12 -22 -26 -12 -30 -3 -54 12 -33 8 11 9 11 5 -1 -2 -8
-11 -15 -19 -15 -25 0 -49 -27 -46 -49 2 -12 9 -20 16 -19 6 2 12 -2 12 -7 0
-6 -4 -10 -10 -10 -5 0 -10 -4 -10 -10 0 -5 10 -10 23 -10 12 0 18 -4 12 -8
-5 -4 -11 -13 -12 -19 -12 -56 408 83 451 149 9 13 25 53 37 89 21 63 37 96
26 52 -3 -14 -1 -23 6 -23 8 0 8 -3 2 -8 -9 -6 -35 -69 -35 -85 0 -10 32 4 68
30 18 14 36 22 40 18 4 -4 1 -10 -6 -12 -27 -10 -137 -105 -147 -126 -5 -12
-14 -25 -20 -29 -6 -5 -3 -8 6 -8 22 0 84 26 101 43 8 8 25 18 38 22 l25 7
-24 -21 c-26 -23 -22 -27 12 -10 15 8 12 1 -11 -19 -17 -17 -32 -35 -32 -40 0
-5 -22 -9 -48 -9 -48 -1 -120 -29 -150 -59 -20 -20 -6 -17 50 11 94 47 58 20
-45 -34 -56 -30 -124 -68 -152 -86 -27 -18 -61 -36 -75 -40 -14 -4 -35 -16
-48 -26 -12 -9 -40 -20 -62 -24 -51 -9 -72 -32 -45 -51 10 -8 16 -16 13 -19
-3 -3 -16 4 -31 15 -28 22 -47 26 -47 9 0 -6 7 -9 15 -5 19 7 19 1 1 -27 -9
-13 -17 -63 -21 -122 -3 -55 -12 -131 -20 -170 -7 -38 -16 -91 -20 -117 -3
-27 -10 -48 -14 -48 -4 0 -4 24 0 53 23 160 28 199 34 276 6 69 5 82 -6 76
-11 -6 -12 -5 -1 6 14 15 16 77 2 99 -8 12 -13 12 -42 -3 -18 -9 -23 -15 -11
-12 12 3 24 1 27 -4 8 -12 -31 -34 -44 -26 -6 3 -10 2 -10 -4 0 -5 4 -12 9
-16 6 -3 9 -14 8 -25 -2 -27 -13 -16 -21 22 -4 23 -9 29 -17 21 -8 -8 -3 -23
15 -52 23 -36 36 -74 20 -58 -3 3 -19 1 -35 -5 -42 -14 -58 -58 -69 -188 -17
-205 -26 -200 -22 13 3 136 1 207 -6 207 -5 0 -32 -23 -59 -51 -50 -53 -146
-125 -197 -147 -44 -19 -43 -7 1 13 47 22 152 104 190 149 62 73 61 71 48 96
-15 28 -99 39 -113 15 -4 -8 -28 -18 -52 -21 -31 -3 -41 -2 -30 5 8 5 18 7 22
5 4 -3 8 -1 8 4 0 10 -37 27 -82 38 -19 4 -33 1 -44 -11 -9 -9 -25 -14 -35
-12 -13 3 -16 0 -12 -11 4 -9 2 -13 -4 -9 -6 4 -18 4 -27 1 -26 -10 0 -33 45
-40 21 -4 43 -12 49 -19 9 -11 7 -12 -9 -8 -12 3 -21 1 -21 -6 0 -6 4 -11 8
-11 5 0 17 -7 28 -16 18 -14 18 -15 -4 -4 -12 6 -26 8 -31 5 -5 -3 -11 -2 -13
3 -5 12 -69 55 -74 49 -3 -2 8 -15 23 -27 19 -16 22 -21 8 -15 -66 25 -117 23
-100 -5 6 -9 4 -11 -5 -5 -9 6 -26 -6 -53 -36 -24 -27 -34 -34 -27 -19 7 14
21 31 32 38 10 7 23 23 30 35 10 21 10 21 -7 7 -17 -14 -17 -14 -7 6 10 19 9
21 -16 17 l-27 -3 25 11 c24 11 24 11 5 19 -11 5 -14 9 -7 9 20 1 14 21 -8 21
-10 0 -23 6 -27 14 -6 10 -39 15 -116 18 l-108 5 -24 -29 c-28 -33 -31 -44
-12 -51 9 -4 8 -8 -3 -16 -10 -7 -11 -11 -2 -11 6 0 12 -11 12 -24 0 -13 6
-29 14 -35 8 -6 16 -20 19 -30 4 -15 -3 -13 -42 12 -59 39 -61 41 -32 32 13
-4 21 -3 19 1 -5 8 -19 43 -23 54 -12 35 -16 62 -12 77 3 15 5 15 14 -6 l10
-25 5 28 c5 25 2 30 -23 39 -16 6 -29 17 -29 24 0 19 -45 16 -71 -6 l-24 -19
38 -22 c60 -36 42 -41 -30 -10 -38 17 -59 23 -48 15 11 -9 20 -20 20 -25 0 -5
7 -15 15 -22 12 -11 12 -11 1 4 -14 19 -5 23 18 9 7 -5 11 -13 7 -19 -7 -11
15 -22 47 -22 20 -1 21 -2 5 -14 -16 -12 -16 -14 0 -31 25 -27 -72 29 -136 79
-29 22 -63 48 -75 56 l-22 15 22 -30 c51 -72 214 -208 323 -269 36 -20 61 -36
55 -36 -18 0 -159 81 -210 121 -27 21 -103 89 -168 151 -139 134 -138 133
-209 173 l-28 16 0 -41 c0 -48 -46 -144 -84 -177 -28 -25 -32 -23 -15 9 10 19
9 20 -7 13 -40 -17 -64 -17 -70 -2 -5 13 -9 12 -31 -6 l-25 -22 48 -7 c26 -4
54 -14 63 -24 15 -15 14 -16 -8 -11 -13 3 -40 -1 -59 -9 -30 -12 -33 -12 -22
1 15 18 5 35 -20 35 -10 0 -69 -36 -132 -81 -171 -123 -333 -199 -522 -245
-118 -28 -126 -29 -100 -9 18 14 18 14 -4 15 -29 0 -20 18 16 31 17 7 29 6 36
-1 27 -27 156 2 290 65 39 18 82 43 96 55 21 18 22 24 12 40 -7 12 -8 20 -2
20 5 0 10 -4 10 -10 0 -17 35 -11 53 10 9 11 22 20 29 21 16 1 74 69 59 69 -6
0 -11 5 -11 11 0 6 7 8 16 5 9 -4 13 -2 8 5 -4 6 0 15 7 20 7 4 10 11 7 14 -4
4 -13 3 -20 -1 -19 -13 -82 -34 -86 -29 -2 2 16 13 40 24 34 15 39 21 26 26
-24 9 -23 25 1 25 10 0 22 7 25 16 3 9 13 14 21 10 8 -3 17 -1 20 4 4 6 1 10
-5 10 -7 0 -10 6 -7 13 3 8 -9 21 -29 32 -27 15 -36 16 -49 5 -12 -10 -15 -9
-15 5 0 17 -1 17 -21 -1 l-21 -19 6 32 c6 26 4 34 -13 42 -29 16 -71 13 -77
-4 -9 -23 -34 -18 -56 11 -12 14 -30 30 -42 35 -11 5 -41 21 -65 34 -51 29
-58 31 -41 10 17 -21 4 -32 -20 -17 -27 16 -50 16 -30 -1 8 -7 24 -23 35 -36
l20 -24 -23 12 c-22 12 -23 11 -12 -9 7 -13 17 -19 28 -16 9 3 24 1 32 -4 12
-8 12 -10 -5 -10 -18 0 -18 -2 5 -20 14 -11 19 -20 12 -20 -8 0 -25 9 -39 20
-35 27 -127 60 -170 60 -28 0 -43 -7 -61 -28 l-23 -27 7 25 c6 20 4 23 -7 14
-8 -6 -27 -14 -44 -18 -16 -4 -32 -12 -36 -17 -3 -6 -16 -6 -33 1 -15 5 -73
10 -129 10 -183 0 -366 33 -532 95 -120 45 -93 44 42 -1 179 -60 300 -78 477
-71 151 6 291 34 313 63 6 9 16 14 20 11 14 -9 33 8 38 32 3 17 0 21 -10 17
-8 -3 -12 0 -9 7 2 7 -9 20 -25 30 -37 22 -40 21 -34 -3 5 -17 3 -18 -20 -7
-14 6 -23 15 -21 19 3 5 2 8 -3 8 -4 0 -28 18 -52 40 -24 22 -52 42 -62 45
-11 4 -19 15 -19 25 0 11 -12 26 -28 34 -25 13 -36 13 -91 -1 -60 -15 -62 -17
-56 -42 l6 -26 -16 23 c-17 24 -35 27 -63 13 -35 -19 -263 -71 -308 -71 -19 0
-54 -4 -77 -9 -23 -5 -70 -15 -104 -22 -35 -6 -63 -16 -63 -20 0 -5 17 -17 38
-28 20 -11 33 -20 29 -21 -4 0 -29 11 -55 24 l-48 24 -154 -21 c-85 -11 -157
-22 -159 -24 -3 -2 1 -9 7 -15 7 -7 12 -19 12 -28 -1 -10 -8 -6 -21 13 -25 33
-55 35 -164 7 -43 -11 -81 -18 -83 -15 -3 3 2 5 10 5 8 0 26 8 39 19 15 11 48
20 88 24 35 3 67 11 71 17 5 8 10 8 14 2 3 -5 27 -8 53 -5 76 6 477 73 558 92
165 39 255 65 245 71 -7 4 19 11 56 14 94 10 184 27 184 36 0 8 -76 79 -128
119 -17 14 -29 28 -26 33 3 4 1 8 -3 8 -5 0 -15 11 -23 24 -8 13 -40 51 -70
83 -30 33 -69 75 -87 94 -17 19 -51 50 -74 69 -24 19 -55 48 -69 65 -14 16
-61 66 -105 111 -79 81 -128 134 -174 188 -17 22 -20 30 -10 36 10 7 9 11 -2
23 -8 8 -23 27 -34 43 -37 51 -67 85 -73 80 -2 -3 -18 4 -33 15 -32 22 -30 46
2 29 17 -10 18 -9 7 15 -6 14 -14 25 -18 25 -4 0 -12 11 -18 25 -7 14 -20 25
-31 25 -11 0 -22 9 -26 19 -3 11 -19 34 -35 53 -16 18 -30 42 -30 53 0 11 -7
31 -16 43 -8 12 -10 22 -5 22 20 0 11 32 -25 90 -21 34 -33 64 -28 71 4 8 3
10 -4 5 -7 -4 -12 0 -12 10 0 10 -7 25 -16 35 -11 12 -17 40 -19 85 -2 61 -16
91 -36 79 -3 -3 -32 0 -63 5 -36 6 -66 5 -85 -1 -20 -7 -41 -7 -65 -1 -20 6
-36 6 -36 2 0 -16 -72 0 -120 26 -43 23 -47 29 -41 52 8 32 64 63 169 93 66
19 72 23 72 48 0 27 20 72 54 124 18 27 18 27 0 20 -11 -3 -22 -11 -26 -17 -5
-7 -8 -7 -8 2 0 7 19 21 43 31 51 22 80 48 73 67 -4 10 2 12 23 8 19 -4 39 1
62 16 33 21 33 22 7 17 -16 -2 -28 0 -28 4 0 5 5 9 10 9 6 0 10 5 10 11 0 6
-7 9 -15 6 -8 -4 -17 -2 -20 2 -2 5 -21 12 -41 16 -20 3 -34 9 -31 11 3 3 32
-2 65 -11 76 -19 160 -14 207 14 20 11 46 23 58 25 32 6 95 29 116 43 2 1 -10
24 -26 50 -15 26 -39 73 -53 103 -13 30 -34 66 -46 80 -12 14 -31 43 -42 65
-11 22 -31 52 -43 66 -13 14 -33 42 -44 61 -25 44 -65 105 -272 413 -44 66
-108 168 -143 227 -34 60 -66 106 -70 103 -12 -7 -141 -228 -183 -310 -90
-181 -179 -419 -222 -595 -26 -111 -31 -122 -41 -95 -4 9 -2 20 3 24 6 3 16
30 22 59 15 73 87 290 128 392 50 121 155 327 225 442 63 105 64 111 27 172
-11 17 -19 36 -19 41 0 6 10 -6 22 -25 13 -19 29 -42 37 -50 13 -13 14 -13 8
3 -4 10 -10 53 -13 96 -7 87 -18 95 -50 35 -10 -19 -24 -34 -31 -34 -16 0 -17
42 -2 57 11 11 33 143 24 151 -2 3 -11 -1 -20 -8 -24 -20 -18 6 10 37 24 27
24 27 25 6 0 -13 5 -23 10 -23 15 0 78 67 85 90 4 11 10 20 15 20 5 0 12 9 15
20 3 11 12 20 18 20 28 1 93 81 82 100 -3 6 -2 10 4 10 5 0 12 -6 15 -12 3 -9
8 -8 16 5 6 9 15 15 21 12 5 -4 9 -1 9 6 0 7 3 9 7 6 7 -8 43 21 43 36 0 15
-53 -3 -68 -24 -7 -10 -18 -19 -25 -19 -6 0 23 33 64 73 42 39 81 81 88 92 11
17 12 15 8 -22 -3 -28 0 -46 9 -53 16 -14 66 18 268 168 77 57 156 115 175
128 20 13 55 37 79 54 23 16 46 30 50 30 4 0 27 16 51 35 24 19 47 35 51 35
17 0 119 68 112 75 -4 5 -2 5 5 1 7 -4 30 4 51 18 43 27 234 119 271 131 17 5
20 9 11 15 -21 13 19 27 95 33 53 3 85 12 129 36 32 17 71 31 87 31 16 0 44 8
62 18 32 17 34 21 30 60 l-4 43 21 -21 c13 -13 20 -30 17 -41 -6 -24 22 -25
84 -4 23 9 71 22 107 30 51 12 153 49 170 61 2 1 -6 15 -17 31 -11 15 -23 44
-26 63 l-6 35 16 -35 c9 -19 25 -45 37 -57z m1195 -99 c-3 -3 -12 -4 -19 -1
-8 3 -5 6 6 6 11 1 17 -2 13 -5z m-1692 -65 c-27 -4 -63 -10 -80 -13 -27 -6
-26 -4 8 12 25 11 53 16 80 13 l42 -5 -50 -7z m598 -16 c-7 -2 -19 -2 -25 0
-7 3 -2 5 12 5 14 0 19 -2 13 -5z m714 -15 c-3 -8 -6 -5 -6 6 -1 11 2 17 5 13
3 -3 4 -12 1 -19z m-521 -27 c73 -8 75 -8 24 -10 -30 0 -112 -8 -183 -17 -70
-8 -133 -13 -140 -10 -7 2 3 5 21 5 17 1 32 6 32 12 0 7 10 9 24 5 14 -3 28
-2 31 4 3 5 20 10 37 10 22 0 29 4 25 14 -5 12 -1 13 22 5 15 -5 63 -13 107
-18z m661 23 c-3 -3 -12 -4 -19 -1 -8 3 -5 6 6 6 11 1 17 -2 13 -5z m-1640
-30 c-3 -3 -12 -4 -19 -1 -8 3 -5 6 6 6 11 1 17 -2 13 -5z m657 -33 c3 -5 -5
-11 -17 -13 -15 -3 -24 0 -24 9 0 15 33 18 41 4z m-105 -27 c2 -2 -3 -4 -12
-4 -8 0 -22 -2 -30 -5 -8 -4 -14 0 -14 9 0 12 7 14 26 9 14 -3 28 -7 30 -9z
m48 10 c-3 -3 -12 -4 -19 -1 -8 3 -5 6 6 6 11 1 17 -2 13 -5z m2522 -186 c83
-88 188 -209 220 -253 25 -34 -8 1 -90 95 -89 102 -195 209 -229 232 -21 14
-22 17 -7 17 11 1 56 -39 106 -91z m-1702 -90 c-3 -8 -6 -5 -6 6 -1 11 2 17 5
13 3 -3 4 -12 1 -19z m-2218 -23 c-24 -19 -48 -35 -53 -35 -12 0 -8 4 40 40
55 42 66 37 13 -5z m891 -35 c0 -5 -4 -10 -10 -10 -5 0 -10 -7 -10 -16 0 -8
-31 -80 -70 -160 -38 -79 -70 -149 -70 -154 0 -5 -7 -18 -16 -29 -9 -11 -33
-50 -54 -88 -20 -37 -49 -88 -65 -113 -16 -25 -40 -70 -53 -100 l-23 -55 6 49
c5 38 4 47 -7 40 -7 -4 -4 2 6 14 11 12 20 39 20 59 1 20 7 38 13 40 11 4 9
-49 -2 -68 -4 -5 -4 -9 -2 -9 7 0 74 114 82 140 4 14 10 27 14 30 14 11 40 68
34 74 -3 3 -22 6 -42 7 l-36 1 30 9 c16 4 37 19 47 31 10 13 18 17 18 10 0 -7
5 -10 11 -6 8 5 8 9 -1 14 -15 10 -1 35 20 35 17 0 69 90 69 123 1 12 12 40
26 62 14 22 25 46 25 54 0 13 13 23 33 25 4 1 7 -3 7 -9z m-980 -47 c-1 -5
-30 -30 -66 -58 -37 -27 -72 -56 -79 -62 -8 -7 -21 -13 -30 -13 -10 0 -13 -5
-9 -12 4 -7 3 -8 -5 -4 -6 4 -19 2 -27 -5 -8 -6 -17 -9 -20 -6 -3 3 3 10 14
16 11 6 26 17 34 24 7 7 33 24 58 39 25 14 54 35 64 47 11 12 25 21 33 21 7 0
13 5 13 10 0 6 5 10 10 10 6 0 10 -3 10 -7z m4270 -99 c0 -17 -22 -14 -28 4
-2 7 3 12 12 12 9 0 16 -7 16 -16z m-4550 -144 c0 -5 -7 -10 -16 -10 -8 0 -12
5 -9 10 3 6 10 10 16 10 5 0 9 -4 9 -10z m-270 -30 c0 -5 -5 -10 -11 -10 -5 0
-7 5 -4 10 3 6 8 10 11 10 2 0 4 -4 4 -10z m228 -10 c-7 -11 -18 -20 -25 -20
-9 0 -7 6 5 19 23 26 35 26 20 1z m114 -137 c-9 -4 -10 -9 -2 -18 8 -10 4 -14
-20 -17 l-30 -5 22 24 c12 13 26 23 32 22 6 0 5 -3 -2 -6z m-383 -48 c-39 -46
-90 -88 -98 -79 -3 3 19 28 48 55 50 46 80 61 50 24z m1309 -62 c-34 -70 -58
-163 -57 -218 l0 -40 19 40 c31 67 22 33 -22 -87 -36 -96 -43 -128 -48 -213
l-5 -100 -14 60 c-7 33 -18 63 -25 67 -8 6 -7 8 2 8 16 0 16 56 -1 63 -7 3
-35 5 -62 5 -109 1 -123 2 -128 15 -3 9 20 12 94 13 117 1 127 8 130 94 1 30
4 44 6 30 10 -53 20 -37 38 57 19 102 41 178 69 231 29 57 33 34 4 -25z
m-1438 -61 c0 -4 -9 -13 -21 -20 -19 -12 -19 -11 -9 8 10 19 30 28 30 12z
m1290 4 c0 -3 -4 -8 -10 -11 -5 -3 -10 -1 -10 4 0 6 5 11 10 11 6 0 10 -2 10
-4z m-325 -236 c3 -5 2 -10 -4 -10 -5 0 -13 5 -16 10 -3 6 -2 10 4 10 5 0 13
-4 16 -10z m125 -120 c0 -5 -7 -10 -16 -10 -8 0 -12 5 -9 10 3 6 10 10 16 10
5 0 9 -4 9 -10z m-1277 -85 c-3 -9 -8 -14 -10 -11 -3 3 -2 9 2 15 9 16 15 13
8 -4z m4210 -42 c-23 -2 -64 -2 -90 0 -26 2 -7 3 42 3 50 0 71 -1 48 -3z m330
-15 c37 -7 67 -16 67 -20 0 -5 6 -8 14 -8 7 0 19 -7 26 -15 9 -10 9 -15 1 -15
-6 0 -11 4 -11 8 0 11 -169 54 -250 63 l-65 8 75 -4 c41 -2 105 -9 143 -17z
m-476 -44 c-3 -3 -12 -4 -19 -1 -8 3 -5 6 6 6 11 1 17 -2 13 -5z m-137 -14 c0
-5 -12 -10 -27 -9 l-28 1 25 8 c14 4 26 8 28 9 1 1 2 -3 2 -9z m57 4 c-3 -3
-12 -4 -19 -1 -8 3 -5 6 6 6 11 1 17 -2 13 -5z m171 -51 c-10 -2 -26 -2 -35 0
-10 3 -2 5 17 5 19 0 27 -2 18 -5z m-308 -37 c0 -2 -13 -6 -29 -8 -17 -2 -28
-1 -25 4 5 8 54 12 54 4z m-1170 -100 c0 -2 -7 -9 -15 -16 -13 -11 -14 -10 -9
4 5 14 24 23 24 12z m-1533 -58 c-3 -8 -6 -5 -6 6 -1 11 2 17 5 13 3 -3 4 -12
1 -19z m2388 -7 c3 -5 0 -13 -6 -17 -7 -4 -9 -3 -5 4 3 6 -2 13 -11 15 -16 4
-16 5 -1 6 9 0 19 -3 23 -8z m42 3 c-3 -3 -12 -4 -19 -1 -8 3 -5 6 6 6 11 1
17 -2 13 -5z m-991 -51 c-11 -26 -139 -213 -144 -208 -2 2 5 17 17 33 12 17
21 33 21 36 0 4 9 17 20 29 11 12 34 45 50 74 29 51 49 71 36 36z m3134 -61
c0 -15 -2 -15 -10 -2 -13 20 -13 33 0 25 6 -3 10 -14 10 -23z m-1515 -6 c11
-3 -2 -3 -30 -1 -27 3 -53 9 -58 14 -9 9 33 2 88 -13z m52 -12 c-3 -3 -12 -4
-19 -1 -8 3 -5 6 6 6 11 1 17 -2 13 -5z m1140 -118 c22 -22 43 -48 47 -56 4
-8 -10 4 -32 28 -22 23 -45 42 -50 42 -10 0 -23 23 -28 50 -2 11 1 9 11 -4 8
-10 31 -37 52 -60z m384 57 c13 -16 12 -17 -3 -4 -10 7 -18 15 -18 17 0 8 8 3
21 -13z m-5007 -152 c-5 -6 -44 35 -44 46 0 4 11 -4 24 -17 13 -14 22 -27 20
-29z m4842 -133 c24 -32 40 -58 36 -58 -4 0 -18 14 -31 30 -13 16 -28 27 -34
23 -5 -3 -7 -1 -4 5 9 13 -2 42 -16 42 -17 0 -77 62 -77 79 0 20 68 -46 126
-121z m-3266 58 c0 -3 -4 -8 -10 -11 -5 -3 -10 -1 -10 4 0 6 5 11 10 11 6 0
10 -2 10 -4z m3454 -139 c8 -6 8 -10 -2 -14 -6 -2 -9 -10 -6 -15 4 -7 2 -8 -4
-4 -7 4 -11 26 -11 49 1 28 3 34 6 17 3 -14 10 -29 17 -33z m-84 -109 c0 -16
-3 -19 -11 -11 -6 6 -8 16 -5 22 11 17 16 13 16 -11z m-6173 -40 c-3 -8 -6 -5
-6 6 -1 11 2 17 5 13 3 -3 4 -12 1 -19z m200 -10 c-3 -7 -5 -2 -5 12 0 14 2
19 5 13 2 -7 2 -19 0 -25z m-10 -40 c-3 -8 -6 -5 -6 6 -1 11 2 17 5 13 3 -3 4
-12 1 -19z m2043 14 c0 -9 -59 -32 -81 -31 -8 0 6 8 31 19 25 10 46 18 48 19
1 1 2 -3 2 -7z m-115 -22 c18 -8 17 -9 -7 -9 -16 -1 -28 4 -28 9 0 12 8 12 35
0z m-1938 -52 c-3 -8 -6 -5 -6 6 -1 11 2 17 5 13 3 -3 4 -12 1 -19z m-10 -70
c-3 -7 -5 -2 -5 12 0 14 2 19 5 13 2 -7 2 -19 0 -25z m753 8 c0 -3 -4 -8 -10
-11 -5 -3 -10 -1 -10 4 0 6 5 11 10 11 6 0 10 -2 10 -4z m-40 -71 c0 -9 -11
-21 -25 -27 -14 -6 -25 -16 -25 -21 0 -6 -3 -8 -6 -5 -3 3 1 17 8 30 21 38 48
51 48 23z m1153 -120 c-3 -9 -8 -14 -10 -11 -3 3 -2 9 2 15 9 16 15 13 8 -4z
m-416 -117 c-3 -8 -6 -5 -6 6 -1 11 2 17 5 13 3 -3 4 -12 1 -19z m4280 -80
c-3 -8 -6 -5 -6 6 -1 11 2 17 5 13 3 -3 4 -12 1 -19z m-5755 -25 c-5 -10 -12
-25 -15 -33 -3 -8 -6 0 -6 18 -1 22 4 32 14 32 12 0 13 -5 7 -17z m5765 -55
c-2 -13 -4 -5 -4 17 -1 22 1 32 4 23 2 -10 2 -28 0 -40z m-5990 -20 c-3 -8 -6
-5 -6 6 -1 11 2 17 5 13 3 -3 4 -12 1 -19z m180 -35 c-3 -3 -11 -2 -17 2 -9 6
-9 10 1 16 14 8 27 -7 16 -18z m3563 3 c0 -11 -19 -15 -25 -6 -3 5 1 10 9 10
9 0 16 -2 16 -4z m110 -44 c0 -3 -9 3 -20 13 -11 10 -20 23 -20 28 0 6 9 0 20
-13 11 -13 20 -25 20 -28z m2147 1 c-3 -10 -5 -4 -5 12 0 17 2 24 5 18 2 -7 2
-21 0 -30z m-5107 -32 c0 -6 -4 -13 -10 -16 -5 -3 -10 1 -10 9 0 9 5 16 10 16
6 0 10 -4 10 -9z m-20 -67 c0 -20 -7 -17 -20 6 -9 16 -8 18 5 14 8 -4 15 -12
15 -20z m5117 -116 c-3 -8 -6 -5 -6 6 -1 11 2 17 5 13 3 -3 4 -12 1 -19z
m-4912 -58 c10 -11 19 -34 20 -52 3 -29 2 -31 -10 -14 -8 10 -12 23 -9 29 5
15 -6 31 -31 45 -15 9 -16 11 -4 12 9 0 24 -9 34 -20z m4900 -35 c-3 -26 -9
-45 -12 -42 -2 3 -1 26 2 52 4 25 10 44 12 41 3 -3 2 -26 -2 -51z m-3801 -41
c5 -14 4 -15 -9 -4 -17 14 -19 20 -6 20 5 0 12 -7 15 -16z m-1067 -46 c-3 -8
-6 -5 -6 6 -1 11 2 17 5 13 3 -3 4 -12 1 -19z m5096 -3 c-3 -9 -8 -14 -10 -11
-3 3 -2 9 2 15 9 16 15 13 8 -4z m-20 -40 c-3 -9 -8 -14 -10 -11 -3 3 -2 9 2
15 9 16 15 13 8 -4z m-183 -60 c-7 -9 -15 -13 -18 -10 -3 2 1 11 8 20 7 9 15
13 18 10 3 -2 -1 -11 -8 -20z m120 -45 c-6 -11 -13 -20 -16 -20 -2 0 0 9 6 20
6 11 13 20 16 20 2 0 0 -9 -6 -20z m-41 -65 c-12 -19 -23 -35 -25 -35 -6 0 14
40 29 58 18 23 16 12 -4 -23z m-5292 -37 c-2 -13 -4 -3 -4 22 0 25 2 35 4 23
2 -13 2 -33 0 -45z m1219 -15 c-7 -7 -26 7 -26 19 0 6 6 6 15 -2 9 -7 13 -15
11 -17z m4020 -21 c-17 -16 -18 -16 -5 5 7 12 15 20 18 17 3 -2 -3 -12 -13
-22z m-4588 -77 c-3 -3 -9 2 -12 12 -6 14 -5 15 5 6 7 -7 10 -15 7 -18z m-923
-190 c29 -31 33 -34 20 -12 -9 16 -14 31 -12 34 3 2 11 -5 17 -17 64 -119 289
-382 414 -484 53 -43 95 -81 92 -83 -3 -3 -12 2 -21 11 -16 16 -40 13 -30 -4
3 -4 -5 -6 -17 -2 l-22 5 22 -34 c13 -19 35 -58 50 -88 14 -29 37 -58 50 -64
12 -6 21 -16 18 -22 -2 -7 0 -18 5 -26 7 -12 9 -12 9 0 0 19 44 -38 47 -61 2
-11 -1 -17 -7 -13 -16 10 -12 -5 12 -38 12 -17 16 -27 10 -23 -7 4 -23 24 -36
45 -13 20 -42 57 -65 80 -23 24 -40 50 -37 57 3 7 0 16 -6 20 -7 5 -8 2 -4 -7
4 -8 -2 -2 -14 13 -12 15 -21 31 -22 35 -1 20 -77 143 -89 143 -4 0 -10 -6
-12 -12 -3 -7 -6 -3 -6 8 -1 24 -22 37 -46 28 -8 -4 -15 -2 -15 4 0 6 -3 19
-6 29 -6 16 -5 15 9 -2 8 -11 19 -17 23 -13 4 5 -1 17 -12 29 -10 12 -18 24
-16 27 2 4 -2 8 -9 11 -8 2 -9 -1 -3 -10 6 -11 4 -11 -10 0 -10 8 -15 23 -12
33 2 11 -2 22 -9 25 -8 2 -17 15 -21 26 -4 12 -14 28 -23 35 -9 8 -10 11 -4 7
9 -4 11 -1 7 10 -4 9 -8 14 -11 11 -4 -4 -53 41 -53 49 0 12 -39 43 -46 37 -4
-4 -4 -2 -1 4 6 11 -51 84 -66 84 -3 0 -28 23 -54 51 -47 50 -67 79 -44 65 15
-10 0 28 -38 96 -45 79 -38 83 13 8 24 -36 60 -83 81 -105z m980 124 c11 -16
1 -19 -13 -3 -7 8 -8 14 -3 14 5 0 13 -5 16 -11z m-1001 -45 c3 -8 2 -12 -4
-9 -6 3 -10 10 -10 16 0 14 7 11 14 -7z m5333 -116 c-3 -8 -6 -5 -6 6 -1 11 2
17 5 13 3 -3 4 -12 1 -19z m-30 -110 c-3 -8 -6 -5 -6 6 -1 11 2 17 5 13 3 -3
4 -12 1 -19z m-2802 -56 c-3 -3 -11 0 -18 7 -9 10 -8 11 6 5 10 -3 15 -9 12
-12z m2770 -252 c3 -5 2 -10 -4 -10 -5 0 -13 5 -16 10 -3 6 -2 10 4 10 5 0 13
-4 16 -10z m-2738 -86 c-3 -3 -12 -4 -19 -1 -8 3 -5 6 6 6 11 1 17 -2 13 -5z
m140 0 c-3 -3 -12 -4 -19 -1 -8 3 -5 6 6 6 11 1 17 -2 13 -5z m1278 -1 c-16
-2 -43 -10 -60 -18 -45 -20 -175 -58 -181 -52 -5 4 66 32 122 46 17 5 39 13
50 19 10 6 37 11 59 10 33 -1 35 -2 10 -5z m1221 -29 c-4 -9 -9 -15 -11 -12
-3 3 -3 13 1 22 4 9 9 15 11 12 3 -3 3 -13 -1 -22z m-2736 -4 c-8 -5 -19 -10
-25 -10 -5 0 -3 5 5 10 8 5 20 10 25 10 6 0 3 -5 -5 -10z m-1790 -41 c0 -9
-57 19 -65 32 -4 5 10 2 29 -8 20 -9 36 -20 36 -24z m4422 -1 c-9 -9 -12 -7
-12 12 0 19 3 21 12 12 9 -9 9 -15 0 -24z m-4448 -13 c3 -8 1 -15 -4 -15 -6 0
-10 7 -10 15 0 8 2 15 4 15 2 0 6 -7 10 -15z m65 1 c25 -22 206 -95 285 -116
71 -19 71 -19 26 -19 -26 -1 -51 4 -58 11 -9 9 -12 9 -12 -1 0 -7 -4 -9 -10
-6 -5 3 -10 2 -10 -4 0 -5 -12 -5 -30 2 -25 9 -33 9 -39 -2 -7 -11 -14 -10
-36 8 -29 22 -26 28 6 11 12 -7 25 -7 36 -2 14 8 13 12 -10 27 -14 9 -30 14
-36 11 -5 -4 -16 1 -24 9 -23 22 -33 18 -12 -5 10 -11 14 -20 8 -20 -5 0 -18
10 -29 21 -10 12 -39 30 -63 40 -36 16 -41 22 -31 34 15 18 19 19 39 1z m2986
4 c-16 -4 -41 -8 -55 -8 -22 0 -22 1 5 8 17 4 41 8 55 8 22 0 22 -1 -5 -8z
m1472 -22 c-3 -8 -6 -5 -6 6 -1 11 2 17 5 13 3 -3 4 -12 1 -19z m-1589 5 c-10
-2 -28 -2 -40 0 -13 2 -5 4 17 4 22 1 32 -1 23 -4z m-105 -10 c-24 -2 -62 -2
-85 0 -24 2 -5 4 42 4 47 0 66 -2 43 -4z m1839 -25 c-7 -7 -12 -8 -12 -2 0 14
12 26 19 19 2 -3 -1 -11 -7 -17z m98 -12 c0 -2 -8 -10 -17 -17 -16 -13 -17
-12 -4 4 13 16 21 21 21 13z m-4307 -83 c-7 -2 -19 -2 -25 0 -7 3 -2 5 12 5
14 0 19 -2 13 -5z m60 -10 c-7 -2 -21 -2 -30 0 -10 3 -4 5 12 5 17 0 24 -2 18
-5z m-272 -20 c13 -16 12 -17 -3 -4 -17 13 -22 21 -14 21 2 0 10 -8 17 -17z
m646 11 c-3 -3 -12 -4 -19 -1 -8 3 -5 6 6 6 11 1 17 -2 13 -5z m-574 -59 c34
-23 54 -47 25 -29 -43 26 -79 54 -72 54 5 0 26 -11 47 -25z m4427 11 c0 -3 -4
-8 -10 -11 -5 -3 -10 -1 -10 4 0 6 5 11 10 11 6 0 10 -2 10 -4z m-4947 -123
c-7 -2 -19 -2 -25 0 -7 3 -2 5 12 5 14 0 19 -2 13 -5z m4797 -88 c-7 -9 -15
-13 -18 -10 -3 2 1 11 8 20 7 9 15 13 18 10 3 -2 -1 -11 -8 -20z m-2822 -122
c-6 -7 -17 -13 -25 -13 -9 0 -13 -6 -9 -15 4 -12 2 -13 -14 -2 -25 15 -26 29
-2 20 14 -5 15 -3 5 8 -11 11 -8 15 15 24 30 13 49 0 30 -22z m166 -19 c5 -14
4 -15 -8 -5 -8 7 -21 9 -27 5 -8 -4 -9 -3 -5 4 10 17 33 15 40 -4z m33 -6 c-3
-8 -6 -5 -6 6 -1 11 2 17 5 13 3 -3 4 -12 1 -19z m-49 -26 c53 -19 87 -41 42
-27 -43 13 -116 44 -105 44 6 1 34 -7 63 -17z m-32 -119 c-3 -4 -12 -8 -19 -9
-7 -2 -23 -6 -37 -9 l-25 -7 25 15 c25 15 69 23 56 10z m-120 -29 c29 -19 84
-28 84 -14 0 6 4 10 10 10 6 0 5 -10 -2 -25 -7 -15 -19 -25 -33 -25 -11 0 -27
-6 -34 -12 -11 -11 -12 -10 -5 2 16 28 12 38 -17 51 -16 6 -32 16 -35 20 -8
14 4 11 32 -7z m-286 -80 c0 -2 -16 -4 -35 -4 -19 0 -35 4 -35 8 0 4 16 6 35
4 19 -2 35 -6 35 -8z m1708 -34 c-7 -10 -14 -17 -17 -15 -4 4 18 35 25 35 2 0
-1 -9 -8 -20z m-1502 -25 c-11 -8 -25 -15 -30 -15 -6 0 -2 7 8 15 11 8 25 15
30 15 6 0 2 -7 -8 -15z m1439 -55 c84 -24 215 -27 295 -6 65 17 77 14 23 -6
-25 -9 -84 -13 -178 -12 -120 1 -146 4 -185 22 -58 26 -43 27 45 2z m-2071 2
c-6 -4 -19 -22 -29 -39 -11 -18 -23 -33 -27 -33 -4 0 5 18 19 40 15 22 31 40
37 40 8 0 8 -2 0 -8z m-107 -127 c-23 -22 -33 -18 -12 5 10 11 20 18 23 16 2
-3 -3 -12 -11 -21z m440 9 c-3 -3 -12 -4 -19 -1 -8 3 -5 6 6 6 11 1 17 -2 13
-5z m-64 -11 c-7 -2 -19 -2 -25 0 -7 3 -2 5 12 5 14 0 19 -2 13 -5z m-75 -10
c-10 -2 -26 -2 -35 0 -10 3 -2 5 17 5 19 0 27 -2 18 -5z m2698 -70 c-10 -10
-19 5 -10 18 6 11 8 11 12 0 2 -7 1 -15 -2 -18z m-1039 -159 c-3 -3 -12 -4
-19 -1 -8 3 -5 6 6 6 11 1 17 -2 13 -5z"/>
<path d="M4958 7203 c7 -3 16 -2 19 1 4 3 -2 6 -13 5 -11 0 -14 -3 -6 -6z"/>
<path d="M4968 7173 c7 -3 16 -2 19 1 4 3 -2 6 -13 5 -11 0 -14 -3 -6 -6z"/>
<path d="M4718 7163 c18 -2 45 -2 60 0 15 2 0 4 -33 4 -33 0 -45 -2 -27 -4z"/>
<path d="M5243 7163 c9 -2 25 -2 35 0 9 3 1 5 -18 5 -19 0 -27 -2 -17 -5z"/>
<path d="M6030 6910 c8 -5 20 -10 25 -10 6 0 3 5 -5 10 -8 5 -19 10 -25 10 -5
0 -3 -5 5 -10z"/>
<path d="M2490 6299 c-15 -28 -7 -34 14 -10 11 12 13 21 7 25 -5 4 -15 -3 -21
-15z"/>
<path d="M2372 6114 c-63 -31 -128 -103 -143 -156 -6 -22 -9 -41 -7 -43 2 -2
23 20 46 48 24 29 71 80 104 115 34 34 59 62 56 62 -2 0 -27 -12 -56 -26z"/>
<path d="M2168 5923 c-37 -38 -60 -93 -39 -93 6 0 21 17 34 38 23 37 49 92 44
92 -2 0 -19 -17 -39 -37z"/>
<path d="M4993 5833 c-7 -3 -13 -11 -13 -19 0 -9 -4 -12 -10 -9 -5 3 -10 1
-10 -4 0 -16 26 -13 40 4 14 17 10 34 -7 28z"/>
<path d="M4985 5760 c-3 -5 -1 -10 4 -10 6 0 11 5 11 10 0 6 -2 10 -4 10 -3 0
-8 -4 -11 -10z"/>
<path d="M4961 5664 c0 -11 3 -14 6 -6 3 7 2 16 -1 19 -3 4 -6 -2 -5 -13z"/>
<path d="M4925 5649 c-4 -6 -5 -12 -2 -15 2 -3 7 2 10 11 7 17 1 20 -8 4z"/>
<path d="M5014 5485 c3 -9 0 -15 -8 -15 -8 0 -20 -10 -29 -23 -18 -27 -58
-167 -51 -178 2 -4 0 -10 -6 -14 -5 -3 -10 -16 -9 -28 0 -12 3 -16 6 -9 2 6
12 12 20 12 11 0 13 -4 5 -12 -5 -7 -13 -23 -16 -35 -13 -41 32 -28 81 24 l44
47 -18 -40 c-10 -21 -25 -44 -33 -51 -8 -7 -11 -13 -7 -13 24 -1 377 168 377
180 0 4 -38 24 -85 46 -46 21 -84 45 -85 52 0 6 -5 12 -11 12 -5 0 -7 -4 -4
-10 8 -13 2 -13 -63 7 -42 13 -51 18 -34 21 13 2 36 -1 53 -7 47 -16 33 -2
-23 24 -61 29 -113 34 -104 10z"/>
<path d="M4864 5385 c-3 -20 -4 -38 -1 -41 3 -3 -1 -20 -8 -37 -21 -54 -27
-77 -17 -77 9 0 40 91 41 120 0 8 3 27 7 43 4 16 2 27 -4 27 -6 0 -14 -16 -18
-35z"/>
<path d="M4721 5234 c0 -11 3 -14 6 -6 3 7 2 16 -1 19 -3 4 -6 -2 -5 -13z"/>
<path d="M5289 5230 l-24 -20 33 11 c17 6 32 15 32 20 0 15 -16 10 -41 -11z"/>
<path d="M4668 5124 c-6 -12 -9 -64 -3 -64 12 0 25 42 17 56 -5 9 -11 13 -14
8z"/>
<path d="M2592 4950 c7 -11 17 -20 22 -20 5 0 1 9 -9 20 -10 11 -20 20 -22 20
-2 0 2 -9 9 -20z"/>
<path d="M2650 4875 c17 -25 35 -45 41 -45 12 0 3 17 -33 59 -39 46 -44 38 -8
-14z"/>
<path d="M3028 4869 c-9 -5 -35 -10 -56 -12 -22 -1 -38 -5 -36 -9 2 -4 -4 -9
-14 -12 -51 -17 -82 -92 -32 -79 14 4 26 -2 40 -20 12 -15 27 -24 35 -21 7 3
22 1 32 -5 17 -10 17 -10 1 -11 -23 0 -23 -25 0 -42 21 -15 42 -45 24 -34 -8
5 -10 2 -6 -8 3 -9 10 -13 15 -10 5 3 12 -2 15 -11 5 -12 9 -13 20 -4 14 12
20 54 7 46 -5 -3 -7 18 -7 46 1 39 6 53 18 55 9 2 16 -3 16 -12 0 -21 44 -21
64 0 9 8 21 12 26 9 6 -4 19 -3 28 1 9 4 24 8 32 9 8 1 34 5 58 10 34 6 40 10
31 21 -6 8 -21 14 -33 14 -15 0 -17 3 -7 9 9 6 10 11 2 15 -6 4 -16 4 -23 0
-7 -4 -8 -3 -4 4 8 13 -43 42 -73 42 -11 0 -23 5 -26 10 -8 13 -105 13 -105 1
0 -5 5 -11 12 -13 7 -3 6 -7 -5 -11 -11 -4 -17 -1 -17 8 0 19 -12 25 -32 14z"/>
<path d="M2898 4843 c7 -3 16 -2 19 1 4 3 -2 6 -13 5 -11 0 -14 -3 -6 -6z"/>
<path d="M3353 4813 c9 -2 14 -9 10 -15 -4 -7 0 -9 10 -5 11 4 17 1 17 -8 0
-8 5 -15 10 -15 6 0 10 6 10 13 0 14 -42 38 -63 36 -7 -1 -4 -3 6 -6z"/>
<path d="M2793 4803 c-20 -8 -15 -23 19 -62 42 -47 68 -49 50 -3 -2 7 -11 11
-19 8 -9 -4 -13 0 -11 12 2 12 -3 17 -19 16 -26 -1 -29 6 -11 24 13 13 11 14
-9 5z"/>
<path d="M2751 4746 c11 -19 27 -37 35 -40 17 -7 7 14 -25 52 -28 33 -33 27
-10 -12z"/>
<path d="M4625 4769 c-4 -5 -4 -22 0 -37 5 -20 8 -23 15 -12 5 8 7 17 4 21 -2
4 0 10 6 14 11 7 4 25 -10 25 -5 0 -12 -5 -15 -11z"/>
<path d="M4553 4717 c-50 -97 -63 -129 -57 -138 3 -6 13 2 21 18 49 88 70 143
56 143 -4 0 -13 -10 -20 -23z"/>
<path d="M2890 4726 c0 -2 7 -7 16 -10 8 -3 12 -2 9 4 -6 10 -25 14 -25 6z"/>
<path d="M3860 4720 c0 -12 8 -12 35 0 18 8 17 9 -7 9 -16 1 -28 -3 -28 -9z"/>
<path d="M4405 4691 c-8 -17 -19 -31 -24 -31 -10 0 -71 -113 -71 -131 0 -8 4
-8 15 1 8 7 15 19 15 27 0 8 4 12 8 9 5 -3 19 17 33 44 15 31 27 44 32 37 5
-8 7 -7 5 3 -1 8 2 25 6 38 12 36 -1 38 -19 3z"/>
<path d="M3500 4699 c-13 -8 -12 -12 5 -25 21 -16 32 -4 18 20 -6 11 -13 12
-23 5z"/>
<path d="M3590 4700 c0 -5 5 -10 10 -10 6 0 10 5 10 10 0 6 -4 10 -10 10 -5 0
-10 -4 -10 -10z"/>
<path d="M3233 4685 c-31 -13 -38 -28 -34 -63 1 -8 -5 -19 -15 -26 -19 -15
-11 -38 11 -30 10 4 12 -1 9 -18 -3 -14 1 -11 10 11 9 18 16 44 16 58 0 14 4
21 10 18 6 -3 8 -16 5 -28 -5 -20 -2 -22 34 -24 28 -2 41 2 45 13 4 9 13 14
21 10 8 -3 15 -1 15 4 0 6 -4 10 -9 10 -5 0 -12 11 -15 24 -3 14 -14 27 -24
29 -12 3 -10 5 8 7 14 1 31 2 39 1 7 -2 10 2 6 8 -9 16 -94 13 -132 -4z"/>
<path d="M3106 4659 c9 -49 20 -56 52 -39 32 18 42 55 15 56 -10 1 -30 4 -45
9 -27 7 -28 6 -22 -26z"/>
<path d="M2870 4673 c0 -5 6 -18 14 -29 12 -15 17 -17 27 -6 9 8 9 12 2 12 -6
0 -19 7 -27 16 -9 8 -16 11 -16 7z"/>
<path d="M2830 4647 c0 -8 15 -30 33 -49 17 -20 33 -42 35 -49 6 -24 19 -31
17 -10 -1 20 -56 104 -75 116 -6 3 -10 0 -10 -8z"/>
<path d="M4576 4651 c-4 -7 -5 -15 -2 -18 9 -9 19 4 14 18 -4 11 -6 11 -12 0z"/>
<path d="M3480 4620 c-12 -8 -12 -10 5 -10 11 0 27 5 35 10 12 8 12 10 -5 10
-11 0 -27 -5 -35 -10z"/>
<path d="M4386 4595 c-9 -26 -7 -32 5 -12 6 10 9 21 6 23 -2 3 -7 -2 -11 -11z"/>
<path d="M3240 4558 c0 -4 14 -8 32 -8 17 0 28 3 25 7 -10 9 -57 10 -57 1z"/>
<path d="M4541 4560 c-1 -8 -14 -55 -30 -105 -27 -83 -29 -86 -27 -42 4 59
-20 67 -29 10 -4 -21 -10 -48 -16 -61 -14 -35 -11 -42 14 -33 12 5 21 14 20
20 -2 6 3 8 10 5 11 -4 11 -12 3 -39 -6 -19 -14 -35 -18 -35 -4 0 -5 7 -2 15
4 10 0 15 -15 15 -17 0 -21 -6 -21 -30 0 -25 6 -32 43 -48 34 -15 43 -16 45
-5 3 11 7 10 17 -4 13 -16 14 -15 12 17 -1 19 -6 41 -11 48 -4 7 -4 18 1 25 6
7 15 39 22 72 7 33 15 69 18 80 13 48 -19 -6 -37 -61 -10 -33 -19 -50 -19 -39
-1 28 22 91 42 113 9 10 19 34 22 53 4 26 3 29 -4 14 -9 -19 -10 -18 -10 5 -1
18 -4 21 -10 11 -7 -11 -9 -11 -14 0 -4 11 -6 11 -6 -1z m-11 -295 c0 -8 -4
-15 -10 -15 -5 0 -10 7 -10 15 0 8 5 15 10 15 6 0 10 -7 10 -15z m-50 -5 c0
-5 -4 -10 -10 -10 -5 0 -10 5 -10 10 0 6 5 10 10 10 6 0 10 -4 10 -10z"/>
<path d="M4360 4539 c-7 -11 -10 -23 -7 -25 2 -2 9 7 15 21 14 30 7 33 -8 4z"/>
<path d="M2934 4509 c-3 -6 -2 -15 3 -20 5 -5 9 -1 9 11 0 23 -2 24 -12 9z"/>
<path d="M2890 4492 c0 -12 19 -26 26 -19 2 2 -2 10 -11 17 -9 8 -15 8 -15 2z"/>
<path d="M4306 4425 c-3 -9 -6 -22 -5 -28 0 -7 5 -1 10 12 5 13 8 26 5 28 -2
2 -6 -3 -10 -12z"/>
<path d="M4277 4345 c-9 -20 -17 -46 -16 -58 0 -13 8 0 20 32 22 63 20 76 -4
26z"/>
<path d="M2930 4290 l-25 -19 30 3 c18 2 31 10 33 20 4 21 -7 20 -38 -4z"/>
<path d="M2919 4260 c-40 -5 -69 -16 -100 -38 -77 -55 -127 -107 -133 -139 -4
-17 0 -20 17 -15 20 5 20 4 8 -11 -18 -23 -9 -21 18 2 13 11 17 21 10 23 -6 2
2 10 18 18 41 21 107 63 114 73 3 5 10 9 15 9 5 -1 23 5 39 13 17 7 38 15 48
19 17 5 24 41 10 48 -5 2 -33 1 -64 -2z"/>
<path d="M4450 4170 c10 -6 11 -10 3 -10 -16 0 17 -62 35 -68 14 -4 7 43 -9
64 -5 6 -6 14 -2 17 3 4 -5 7 -18 7 -19 0 -21 -2 -9 -10z"/>
<path d="M2485 4158 c-50 -29 -92 -109 -76 -145 13 -28 26 -29 41 -5 11 16 11
16 6 0 -3 -10 -1 -18 4 -18 6 0 10 4 10 8 0 4 15 6 33 4 40 -4 76 28 105 92
24 54 0 41 -58 -31 -6 -7 -10 -17 -10 -23 0 -5 -7 -10 -15 -10 -8 0 -15 3 -15
6 0 12 24 51 49 77 21 23 23 29 11 37 -10 6 -23 4 -37 -6 -24 -15 -31 -6 -11
14 16 16 -9 16 -37 0z"/>
<path d="M2805 4080 c-10 -11 -14 -20 -8 -20 5 0 18 9 28 20 10 11 14 20 8 20
-5 0 -18 -9 -28 -20z"/>
<path d="M2389 3956 c-2 -2 -26 -6 -54 -10 -97 -11 -195 -58 -195 -92 0 -23
52 -49 97 -49 46 0 57 17 26 40 -10 8 -12 14 -5 19 6 3 18 -1 27 -11 16 -16
18 -16 27 0 5 9 18 17 28 17 18 0 26 19 22 51 -1 4 7 5 16 2 12 -3 18 2 19 16
2 21 0 24 -8 17z"/>
<path d="M2476 3953 c-13 -13 -5 -33 14 -33 11 0 20 3 20 6 0 11 -28 33 -34
27z"/>
<path d="M2975 3940 c-3 -5 -2 -10 4 -10 5 0 13 5 16 10 3 6 2 10 -4 10 -5 0
-13 -4 -16 -10z"/>
<path d="M2960 3909 c0 -5 5 -7 10 -4 6 3 10 8 10 11 0 2 -4 4 -10 4 -5 0 -10
-5 -10 -11z"/>
<path d="M2430 3880 c0 -5 5 -10 11 -10 5 0 7 5 4 10 -3 6 -8 10 -11 10 -2 0
-4 -4 -4 -10z"/>
<path d="M4448 3873 c7 -3 16 -2 19 1 4 3 -2 6 -13 5 -11 0 -14 -3 -6 -6z"/>
<path d="M4480 3870 c0 -5 5 -10 11 -10 5 0 7 5 4 10 -3 6 -8 10 -11 10 -2 0
-4 -4 -4 -10z"/>
<path d="M4528 3863 c7 -3 16 -2 19 1 4 3 -2 6 -13 5 -11 0 -14 -3 -6 -6z"/>
<path d="M4566 3861 c-4 -7 -1 -9 8 -5 8 3 24 0 36 -6 20 -11 40 -7 28 5 -11
12 -66 16 -72 6z"/>
<path d="M2848 3814 c-30 -60 -21 -204 22 -335 22 -69 37 -95 75 -130 36 -34
55 -37 55 -9 0 27 -42 109 -47 93 -2 -7 1 -22 8 -35 11 -21 11 -22 -4 -9 -10
7 -16 25 -15 40 1 14 -3 35 -9 46 -17 31 -43 172 -43 230 0 33 -5 59 -14 68
-16 15 -11 57 8 69 7 5 6 8 -4 8 -8 0 -23 -16 -32 -36z"/>
<path d="M2396 3824 c-9 -23 -8 -24 19 -24 15 0 25 6 25 14 0 8 8 17 18 19 9
3 1 5 -19 6 -25 1 -39 -4 -43 -15z"/>
<path d="M2774 3832 c-7 -4 -8 -15 -3 -27 l8 -20 1 20 1 20 9 -20 c8 -18 9
-17 9 8 1 28 -5 32 -25 19z"/>
<path d="M2310 3818 c0 -12 22 -21 29 -11 3 6 13 13 21 16 8 3 0 4 -17 4 -18
-1 -33 -5 -33 -9z"/>
<path d="M2709 3818 c-6 -11 -4 -65 1 -73 4 -5 15 -35 25 -65 24 -75 63 -155
86 -176 19 -17 20 -17 13 2 -4 10 -11 24 -15 29 -13 17 -51 174 -46 188 3 7 6
3 6 -8 1 -11 6 -27 11 -35 7 -11 10 2 10 42 l0 57 -36 -1 c-34 -1 -59 16 -48
34 3 4 3 8 0 8 -3 0 -7 -1 -7 -2z"/>
<path d="M2912 3781 c-19 -12 -6 -165 18 -211 10 -19 21 -51 24 -71 4 -19 12
-44 20 -54 12 -17 13 -15 11 21 -2 21 -10 59 -19 84 -9 25 -16 60 -16 78 0 17
-4 32 -9 32 -5 0 -6 19 -4 43 6 52 -7 90 -25 78z m28 -153 c0 -16 -3 -19 -11
-11 -6 6 -8 16 -5 22 11 17 16 13 16 -11z"/>
<path d="M2603 3755 c-7 -19 4 -106 17 -138 7 -16 8 -11 2 18 -4 22 -6 61 -5
88 2 48 -3 59 -14 32z"/>
<path d="M2634 3730 c7 -60 32 -191 41 -212 4 -10 11 -16 15 -13 4 3 11 -7 15
-23 11 -48 54 -129 71 -136 9 -3 14 -13 11 -21 -4 -9 -1 -12 9 -8 7 3 14 0 14
-6 0 -6 3 -10 8 -9 4 1 17 -4 30 -11 l23 -12 -17 28 c-10 15 -29 42 -41 59
-13 17 -21 33 -18 36 3 3 -11 41 -32 84 -21 44 -47 101 -57 126 -22 57 -39 53
-30 -5 4 -23 4 -40 1 -37 -3 3 -11 43 -17 90 -12 90 -34 151 -26 70z m53 -202
c-3 -8 -6 -5 -6 6 -1 11 2 17 5 13 3 -3 4 -12 1 -19z"/>
<path d="M2681 3737 c-1 -21 29 -90 36 -83 3 3 1 11 -3 18 -5 7 -14 29 -20 48
-7 19 -12 27 -13 17z"/>
<path d="M2940 3300 c29 -57 53 -81 67 -67 3 3 -1 12 -8 20 -8 7 -27 35 -43
60 -42 67 -52 58 -16 -13z"/>
<path d="M3020 3276 c0 -8 5 -18 10 -21 6 -3 10 1 10 9 0 8 -4 18 -10 21 -5 3
-10 -1 -10 -9z"/>
<path d="M2841 3173 c11 -21 33 -53 48 -72 14 -18 31 -40 36 -50 32 -51 55
-81 103 -129 30 -29 56 -52 58 -49 3 3 -2 27 -11 55 -15 44 -24 55 -71 83 -30
18 -54 37 -54 42 0 6 5 5 13 0 6 -6 20 -13 30 -16 16 -6 16 -5 2 17 -8 12 -13
25 -9 28 3 3 -2 5 -12 5 -9 -1 -19 4 -22 12 -3 9 0 11 8 6 8 -5 11 -4 6 3 -4
6 -13 9 -21 6 -7 -3 -18 4 -24 15 -6 11 -32 34 -56 51 l-45 31 21 -38z"/>
<path d="M3105 3029 c11 -13 42 -47 70 -76 28 -28 49 -55 48 -60 -10 -30 432
-423 458 -407 15 9 -3 30 -61 70 -50 34 -134 100 -168 132 -7 6 -23 17 -34 23
-11 6 -17 13 -14 16 5 5 -37 46 -113 111 -18 16 -29 32 -24 35 10 6 24 -5 79
-66 17 -18 48 -44 68 -56 20 -13 34 -27 30 -32 -3 -5 -1 -9 4 -9 5 0 30 -21
56 -46 28 -28 51 -44 60 -41 10 4 13 1 9 -9 -3 -7 -1 -14 5 -14 6 0 12 5 14
11 2 6 25 -5 53 -26 26 -21 64 -44 82 -52 l35 -14 -19 25 c-10 13 -22 23 -28
23 -5 -1 -8 5 -7 13 2 8 0 12 -4 8 -7 -8 -64 22 -64 33 0 4 -33 31 -72 61 -40
29 -81 61 -90 71 -10 9 -23 17 -29 17 -6 0 -8 7 -5 16 3 9 2 12 -4 9 -6 -4
-29 10 -52 29 -23 20 -47 36 -55 36 -7 0 -15 11 -19 25 -4 15 -12 24 -22 23
-8 -2 -17 4 -19 12 -4 13 -3 13 6 0 6 -8 11 -10 11 -5 0 6 -15 22 -33 36 -45
36 -57 42 -57 29 0 -6 8 -14 18 -17 18 -7 42 -28 42 -37 0 -14 -30 -5 -42 12
-7 11 -40 41 -73 67 -33 27 -51 37 -40 24z m153 -148 c3 -8 -1 -12 -9 -9 -7 2
-15 10 -17 17 -3 8 1 12 9 9 7 -2 15 -10 17 -17z"/>
<path d="M2990 2922 c0 -12 102 -122 113 -122 6 0 -12 24 -41 53 -29 29 -52
58 -52 65 0 7 -4 12 -10 12 -5 0 -10 -3 -10 -8z"/>
<path d="M3320 2886 c0 -2 7 -7 16 -10 8 -3 12 -2 9 4 -6 10 -25 14 -25 6z"/>
<path d="M3136 2841 c3 -34 35 -70 43 -48 2 6 -1 13 -7 15 -7 2 -12 10 -12 18
0 8 -4 14 -9 14 -5 0 -12 8 -14 18 -2 9 -3 2 -1 -17z"/>
<path d="M7265 2870 c-3 -5 -1 -10 4 -10 6 0 11 5 11 10 0 6 -2 10 -4 10 -3 0
-8 -4 -11 -10z"/>
<path d="M7202 2680 c0 -19 2 -27 5 -17 2 9 2 25 0 35 -3 9 -5 1 -5 -18z"/>
<path d="M3590 2595 c0 -2 10 -10 23 -16 20 -11 21 -11 8 4 -13 16 -31 23 -31
12z"/>
<path d="M6974 2493 c-35 -48 -35 -50 -1 -50 18 0 26 2 20 4 -10 4 -10 10 -2
24 6 11 9 27 7 35 -2 12 -9 8 -24 -13z"/>
<path d="M3716 2471 c-12 -18 215 -160 369 -231 68 -31 94 -39 110 -32 19 8
18 10 -12 26 -18 9 -35 16 -38 16 -3 0 -16 7 -30 16 -13 9 -57 29 -97 46 -40
16 -82 37 -93 48 -11 10 -51 35 -90 56 -38 21 -76 44 -83 51 -16 15 -29 17
-36 4z"/>
<path d="M3852 2464 c17 -20 78 -59 78 -50 0 3 -21 20 -47 37 -27 18 -40 24
-31 13z"/>
<path d="M3500 2402 c0 -11 98 -102 129 -120 30 -18 41 -6 13 13 -11 9 -27 22
-35 30 -8 8 -17 11 -21 8 -3 -4 -6 -1 -6 5 0 7 -7 12 -16 12 -8 0 -13 4 -10 9
3 4 -2 15 -12 23 -26 23 -42 30 -42 20z"/>
<path d="M6991 2384 c-10 -13 -23 -24 -28 -24 -6 0 -18 -9 -28 -20 -14 -15
-15 -20 -4 -20 9 0 7 -5 -6 -12 -21 -12 -44 -38 -45 -50 0 -11 64 19 68 31 2
6 9 11 17 11 14 0 95 84 95 99 0 19 -51 8 -69 -15z"/>
<path d="M3710 2251 c0 -14 41 -41 62 -41 24 0 13 25 -18 39 -30 13 -44 14
-44 2z"/>
<path d="M4236 2181 c-5 -8 13 -17 93 -49 9 -3 12 -1 8 5 -4 6 -4 13 0 16 5 2
2 2 -5 1 -7 -2 -27 5 -45 16 -36 22 -43 24 -51 11z"/>
<path d="M4389 2125 c18 -8 38 -15 45 -15 6 1 -4 7 -23 15 -18 8 -38 15 -45
15 -6 -1 4 -7 23 -15z"/>
<path d="M4545 2060 c11 -5 29 -8 40 -8 16 0 15 2 -5 8 -34 11 -60 11 -35 0z"/>
<path d="M4668 2023 c7 -3 16 -2 19 1 4 3 -2 6 -13 5 -11 0 -14 -3 -6 -6z"/>
<path d="M3943 1997 c0 -7 22 -28 48 -45 47 -31 48 -31 37 -8 -6 14 -16 22
-24 19 -8 -3 -14 0 -14 7 0 12 -28 39 -41 40 -3 0 -6 -6 -6 -13z"/>
<path d="M4020 2001 c0 -6 4 -13 10 -16 6 -3 7 1 4 9 -7 18 -14 21 -14 7z"/>
<path d="M7075 1969 c-39 -25 -169 -74 -253 -96 -37 -10 -80 -26 -97 -35 l-30
-18 55 -1 c34 -1 43 -4 25 -6 -16 -3 -34 -11 -38 -19 -4 -8 -19 -14 -32 -14
-14 0 -25 -4 -25 -9 0 -11 55 -31 86 -31 61 0 272 129 320 196 43 61 41 67
-11 33z"/>
<path d="M4065 1960 c10 -11 20 -20 22 -20 1 0 3 9 3 20 0 14 -7 20 -22 20
-20 0 -21 -1 -3 -20z"/>
<path d="M4118 1963 c-21 -5 -22 -10 -5 -26 37 -36 44 -38 50 -18 6 24 -21 49
-45 44z"/>
<path d="M6525 1950 c-3 -5 -1 -10 4 -10 6 0 11 5 11 10 0 6 -2 10 -4 10 -3 0
-8 -4 -11 -10z"/>
<path d="M4174 1933 c2 -10 7 -18 12 -18 5 0 10 8 12 18 2 10 -3 17 -11 17 -9
0 -14 -8 -13 -17z"/>
<path d="M4067 1923 c3 -8 17 -19 32 -24 20 -8 22 -12 11 -19 -13 -9 -13 -10
0 -10 13 0 13 -1 0 -10 -8 -5 -10 -10 -4 -10 7 0 22 8 35 18 l22 19 -31 11
c-18 6 -32 15 -32 20 0 5 -9 12 -19 15 -14 3 -18 1 -14 -10z"/>
<path d="M6055 1883 c-16 -3 -35 -12 -42 -21 -7 -10 -13 -12 -13 -7 0 6 -4 4
-9 -4 -5 -8 -18 -15 -28 -16 -23 -1 -43 -13 -43 -26 0 -12 48 -1 75 17 25 18
35 18 35 -1 0 -16 -33 -34 -97 -55 -24 -7 -43 -17 -43 -21 0 -17 96 -36 158
-30 18 2 142 129 142 147 0 10 -12 14 -39 14 -22 0 -45 2 -53 3 -7 2 -26 2
-43 0z"/>
<path d="M6231 1860 c3 -29 -1 -38 -18 -44 -15 -6 -15 -4 2 14 10 11 13 20 8
20 -6 0 -27 -18 -47 -40 -37 -41 -46 -57 -23 -43 6 4 23 8 37 8 39 2 92 33 80
48 -6 7 -17 21 -26 32 -10 14 -14 16 -13 5z"/>
<path d="M4360 1840 c8 -5 20 -10 25 -10 6 0 3 5 -5 10 -8 5 -19 10 -25 10 -5
0 -3 -5 5 -10z"/>
<path d="M4630 1791 c0 -10 30 -24 37 -17 3 2 -5 9 -16 16 -12 6 -21 7 -21 1z"/>
<path d="M4369 1771 c24 -18 57 -18 45 0 -3 5 -9 7 -14 4 -5 -3 -11 -1 -15 5
-3 5 -14 10 -23 10 -13 0 -12 -4 7 -19z"/>
<path d="M6290 1751 c0 -5 5 -13 10 -16 6 -3 10 -2 10 4 0 5 -4 13 -10 16 -5
3 -10 2 -10 -4z"/>
<path d="M6103 1738 c-26 -12 -30 -28 -9 -28 25 0 46 12 46 26 0 16 -7 17 -37
2z"/>
<path d="M6526 1725 c4 -8 12 -15 20 -15 20 0 17 7 -6 20 -16 9 -18 8 -14 -5z"/>
<path d="M6685 1730 c-3 -5 -2 -10 4 -10 5 0 13 5 16 10 3 6 2 10 -4 10 -5 0
-13 -4 -16 -10z"/>
<path d="M6230 1710 c-11 -7 -5 -10 23 -10 23 0 36 4 32 10 -8 13 -35 13 -55
0z"/>
<path d="M5715 1685 c22 -8 49 -13 60 -13 11 0 2 6 -20 13 -22 8 -49 13 -60
13 -11 0 -2 -6 20 -13z"/>
<path d="M5845 1681 c3 -5 -7 -12 -22 -14 -27 -4 -27 -4 4 -6 35 -1 52 13 27
23 -8 3 -12 2 -9 -3z"/>
<path d="M5536 1661 c-3 -5 9 -14 27 -21 45 -16 127 -29 121 -18 -3 4 3 8 13
8 10 0 -2 9 -26 20 -52 24 -57 25 -41 5 7 -9 8 -15 2 -15 -5 0 -12 7 -16 15
-6 16 -71 21 -80 6z"/>
<path d="M5488 1628 c5 -5 16 -8 23 -6 8 3 3 7 -10 11 -17 4 -21 3 -13 -5z"/>
<path d="M5780 1630 c0 -5 5 -10 11 -10 5 0 7 5 4 10 -3 6 -8 10 -11 10 -2 0
-4 -4 -4 -10z"/>
<path d="M6298 1593 c7 -3 16 -2 19 1 4 3 -2 6 -13 5 -11 0 -14 -3 -6 -6z"/>
<path d="M4820 1580 c0 -5 5 -10 10 -10 6 0 10 5 10 10 0 6 -4 10 -10 10 -5 0
-10 -4 -10 -10z"/>
<path d="M6408 1463 c7 -3 16 -2 19 1 4 3 -2 6 -13 5 -11 0 -14 -3 -6 -6z"/>
<path d="M2250 2419 c0 -5 5 -7 10 -4 6 3 10 8 10 11 0 2 -4 4 -10 4 -5 0 -10
-5 -10 -11z"/>
</g>
</svg>
